<svg xmlns="http://www.w3.org/2000/svg" width="878" height="879" viewBox="0 0 878 879" version="1.1">
	<path d="M -0 439.501 L -0 879.002 439.250 878.751 L 878.500 878.500 878.751 439.250 L 879.002 -0 439.501 -0 L 0 0 -0 439.501 M 0.496 440 C 0.496 681.725, 0.610 780.612, 0.750 659.750 C 0.890 538.887, 0.890 341.112, 0.750 220.250 C 0.610 99.387, 0.496 198.275, 0.496 440 M 487.975 178.250 C 478.580 183.002, 483.882 162.366, 420.969 439.035 C 382.609 607.731, 363.978 691.481, 363.901 695.567 C 363.614 710.778, 375.399 722.812, 386.157 718.294 C 390.148 716.618, 394.642 712.526, 396.591 708.795 C 397.369 707.308, 423.920 592.783, 455.594 454.295 C 519.135 176.480, 514.974 197.247, 509.222 186.656 C 506.220 181.131, 499.381 176, 495.016 176 C 493.590 176, 490.422 177.012, 487.975 178.250 M 316 303.134 C 314.075 304.303, 304.477 311.164, 294.671 318.380 C 284.864 325.596, 270.393 336.225, 262.511 342 C 188.934 395.912, 152.078 423.286, 149.864 425.666 C 144.685 431.234, 142.799 437.042, 142.889 447.142 C 142.965 455.790, 145.858 463.516, 150.744 468.125 C 152.810 470.074, 161.925 477.081, 171 483.696 C 188.440 496.410, 215.532 516.132, 253.500 543.754 C 266.150 552.957, 285.877 567.352, 297.338 575.743 C 317.203 590.287, 318.395 591, 322.865 591 C 326.676 591, 328.168 590.440, 330.830 588.008 C 336.416 582.906, 338.498 576.931, 338.499 566 C 338.500 554.359, 336.678 549.031, 330.745 543.322 C 328.410 541.075, 309.625 526.963, 289 511.961 C 268.375 496.959, 247.900 482.048, 243.500 478.826 C 239.100 475.603, 227.662 467.237, 218.083 460.233 C 208.503 453.230, 200.509 447.031, 200.318 446.457 C 199.990 445.471, 205.677 441.164, 250 408.830 C 334.383 347.273, 333.963 347.607, 336.987 339.565 C 337.594 337.951, 338.355 333.208, 338.678 329.025 C 340.193 309.374, 328.223 295.708, 316 303.134 M 550.389 302.905 C 546.569 305.234, 543.858 309.009, 541.502 315.277 C 540.055 319.130, 539.821 321.802, 540.293 329.085 C 540.937 339.027, 543.097 344.851, 547.747 349.187 C 550.061 351.344, 571.198 366.911, 611.500 396.140 C 619.357 401.838, 648.733 423.271, 668.809 437.952 C 674.414 442.051, 679 445.724, 679 446.114 C 679 446.840, 674.019 450.536, 618.500 491.006 C 553.680 538.255, 547.489 542.936, 545.093 546.501 C 537.468 557.846, 538.551 578.551, 547.224 587.224 C 550.354 590.354, 551.696 591, 555.066 591 C 557.302 591, 560.114 590.483, 561.316 589.852 C 563.712 588.591, 578.657 577.856, 622 546.260 C 637.675 534.833, 667.150 513.381, 687.500 498.589 C 707.850 483.796, 726.190 470.093, 728.256 468.138 C 737.904 459.005, 738.763 436.634, 729.857 426.490 C 728.175 424.574, 709.474 410.293, 688.299 394.754 C 667.124 379.214, 643.656 361.978, 636.149 356.450 C 579.750 314.925, 567.974 306.331, 564.054 303.833 C 558.874 300.532, 554.740 300.251, 550.389 302.905" stroke="none" fill="#000000" fill-rule="evenodd"/>
</svg>